<svg xmlns="http://www.w3.org/2000/svg" width="1200" height="630" viewBox="0 0 1200 630">
  <rect width="1200" height="630" fill="#0b130e"/>
  <path d="M0 0h1200M0 90h1200M0 180h1200M0 270h1200M0 360h1200M0 450h1200M0 540h1200M0 630h1200M0 0v630M90 0v630M180 0v630M270 0v630M360 0v630M450 0v630M540 0v630M630 0v630M720 0v630M810 0v630M900 0v630M990 0v630M1080 0v630M1170 0v630" stroke="#1d3324"/>
  <text x="70" y="90" fill="#9eea62" font-family="monospace" font-size="22">~/krishnakumar.dev</text>
  <text x="70" y="315" fill="#eeeadd" font-family="sans-serif" font-size="88" font-weight="700">Full-stack engineer.</text>
  <text x="70" y="405" fill="#93a097" font-family="sans-serif" font-size="35">AI workflows · APIs · data systems · responsive interfaces</text>
  <text x="70" y="550" fill="#9eea62" font-family="monospace" font-size="22">TORONTO / AVAILABLE</text>
</svg>
